<?xml version="1.0" standalone="no"?>
<!DOCTYPE svg PUBLIC "-//W3C//DTD SVG 20010904//EN"
 "http://www.w3.org/TR/2001/REC-SVG-20010904/DTD/svg10.dtd">
<svg version="1.0" xmlns="http://www.w3.org/2000/svg"
 width="1920.000000pt" height="1920.000000pt" viewBox="0 0 1920.000000 1920.000000"
 preserveAspectRatio="xMidYMid meet">
<metadata>
Created by potrace 1.14, written by Peter Selinger 2001-2017
</metadata>
<g transform="translate(0.000000,1920.000000) scale(0.100000,-0.100000)"
fill="#000000" stroke="none">
<path d="M3959 12896 c-2 -2 -31 -7 -64 -10 -555 -58 -1086 -355 -1441 -806
-51 -65 -174 -244 -174 -253 0 -3 -15 -31 -33 -64 -56 -100 -157 -346 -182
-443 -22 -88 -56 -244 -60 -280 -3 -25 -8 -54 -10 -65 -16 -77 -22 -349 -11
-480 10 -121 21 -195 40 -290 157 -772 709 -1399 1442 -1640 87 -29 251 -69
329 -80 90 -13 99 -15 170 -21 132 -12 362 -6 466 11 13 2 40 6 59 9 31 5 100
18 155 30 158 33 367 110 534 196 169 87 278 161 479 329 64 53 129 106 144
117 l26 21 -24 29 c-14 16 -39 44 -56 63 -17 19 -64 72 -105 119 -40 46 -79
90 -86 97 -7 7 -39 43 -72 81 -226 256 -216 247 -239 226 -105 -95 -309 -256
-373 -294 -351 -208 -803 -253 -1177 -117 -73 27 -265 123 -276 138 -3 4 -27
22 -55 41 -121 81 -293 284 -383 452 -63 117 -130 329 -148 468 -9 72 -11 288
-3 360 37 313 166 594 373 810 198 207 450 341 726 386 138 22 331 22 455 -2
108 -20 213 -49 270 -73 212 -91 272 -131 583 -395 33 -28 34 -28 52 -10 9 10
124 145 255 299 131 154 247 290 258 302 l20 22 -33 28 c-209 177 -452 363
-475 363 -3 0 -21 11 -39 25 -18 14 -39 25 -45 25 -7 0 -25 8 -39 19 -31 21
-183 90 -257 116 -27 9 -59 21 -70 26 -25 10 -150 48 -179 53 -11 2 -41 9 -66
15 -40 9 -128 24 -215 38 -37 5 -441 13 -446 9z"/>
<path d="M7449 12896 c-2 -2 -37 -7 -77 -10 -59 -5 -176 -26 -285 -51 -108
-24 -305 -99 -431 -162 -133 -67 -357 -217 -435 -291 -10 -9 -44 -42 -77 -73
-226 -215 -387 -445 -522 -749 -46 -105 -113 -327 -136 -455 -3 -17 -8 -41
-11 -55 -5 -26 -10 -65 -21 -165 -9 -78 -9 -322 -1 -405 35 -343 129 -645 288
-923 267 -466 699 -823 1199 -990 124 -41 232 -68 335 -83 22 -3 51 -7 64 -9
133 -22 441 -23 557 -1 34 6 119 17 124 16 3 -1 18 4 34 10 16 6 45 13 65 16
131 21 448 152 610 253 223 138 462 355 607 551 82 112 92 127 146 220 235
409 334 855 295 1340 -7 96 -50 337 -71 402 -7 24 -26 81 -41 128 -30 95 -38
113 -106 255 -272 566 -779 993 -1374 1158 -91 26 -168 42 -240 53 -22 3 -51
8 -65 11 -30 6 -425 14 -431 9z m284 -487 c72 -26 97 -49 389 -339 147 -146
318 -313 380 -372 62 -59 139 -142 170 -185 76 -103 158 -264 201 -393 35
-105 43 -136 53 -220 l6 -45 -47 50 c-26 28 -129 135 -229 239 -99 103 -194
202 -210 220 -16 17 -81 85 -145 151 -64 67 -192 201 -286 300 -214 224 -221
231 -272 255 -64 30 -188 28 -251 -4 -42 -21 -166 -143 -437 -431 -16 -17
-109 -114 -206 -216 -97 -101 -220 -229 -272 -284 -52 -55 -136 -143 -186
-195 l-90 -95 5 40 c3 22 17 84 30 138 66 263 199 493 388 667 38 36 205 199
370 363 166 163 318 308 338 322 79 53 208 68 301 34z"/>
<path d="M9914 12851 c-2 -2 -4 -981 -4 -2175 l0 -2171 420 0 420 0 0 777 c0
615 3 778 13 779 87 8 461 -4 547 -18 89 -13 174 -58 232 -120 22 -25 162
-232 193 -286 5 -10 57 -91 114 -180 404 -630 407 -636 506 -730 105 -101 218
-164 360 -199 67 -17 119 -20 323 -22 213 -2 242 0 243 13 0 9 1 198 1 421 l1
405 -179 3 -179 3 -158 247 c-87 136 -195 303 -239 372 -44 69 -86 134 -92
145 -6 11 -13 22 -17 25 -9 9 -70 112 -67 114 2 2 30 18 63 36 268 148 487
412 595 716 170 482 51 1022 -306 1390 -207 213 -456 347 -767 413 -105 23
-123 26 -237 37 -78 7 -1778 12 -1786 5z m1786 -855 c174 -36 291 -90 382
-179 262 -257 180 -682 -162 -834 -73 -33 -149 -55 -242 -70 -18 -3 -234 -6
-480 -7 l-448 -2 0 553 0 552 458 -3 c251 -2 473 -6 492 -10z"/>
<path d="M13467 12850 c-10 -4 -13 -457 -12 -2172 0 -1193 2 -2169 5 -2169 3
-1 717 -2 1588 -3 l1582 -1 0 50 c1 27 1 217 1 420 l1 370 -1166 3 c-641 1
-1167 5 -1167 10 -1 4 -2 206 -3 450 l-1 442 25 1 c14 0 320 1 680 2 l655 2 1
422 1 423 -681 2 -681 3 0 450 0 450 1055 2 c580 0 1062 2 1070 2 14 1 16 48
14 419 0 229 -2 419 -3 422 0 3 -665 5 -1476 5 -812 0 -1481 -2 -1488 -5z"/>
<path d="M3269 7987 c-10 -18 -19 -35 -19 -39 0 -7 -161 -419 -180 -463 -5
-11 -55 -135 -110 -275 -55 -140 -109 -275 -120 -300 -10 -25 -69 -173 -130
-330 -62 -157 -116 -294 -121 -305 -20 -45 -159 -400 -159 -406 0 -7 79 -39
96 -39 5 0 22 35 38 78 16 42 37 95 47 117 9 22 47 118 84 213 l68 172 561 -2
560 -3 38 -95 c21 -52 43 -106 49 -120 5 -14 21 -54 36 -90 14 -36 33 -83 43
-105 9 -22 27 -68 40 -102 12 -35 28 -63 34 -63 15 0 84 25 92 33 4 3 -32 102
-79 219 -47 117 -223 560 -392 983 -168 424 -317 795 -329 825 -13 30 -29 70
-36 88 -7 17 -15 33 -19 33 -50 12 -73 6 -92 -24z m241 -642 c101 -253 216
-541 255 -640 l72 -180 -510 -3 c-281 -1 -512 -1 -514 1 -3 4 64 179 98 254
10 23 19 46 19 51 0 5 6 22 14 38 8 16 96 235 196 487 100 252 184 457 185
455 1 -2 85 -210 185 -463z"/>
<path d="M6078 8015 c-2 -2 -32 -5 -68 -9 -212 -20 -435 -137 -531 -280 -99
-147 -91 -331 18 -464 96 -117 240 -189 659 -327 172 -57 355 -123 406 -148
224 -106 316 -225 306 -393 -8 -144 -106 -269 -278 -358 -141 -73 -252 -98
-440 -100 -85 0 -175 3 -200 7 -54 10 -187 44 -215 56 -139 59 -253 124 -328
191 l-37 32 -35 -33 c-40 -39 -42 -48 -17 -70 113 -97 219 -162 343 -212 71
-29 165 -57 191 -58 4 0 22 -4 40 -10 67 -19 249 -27 363 -16 160 16 232 37
393 115 337 164 441 539 215 778 -111 117 -259 191 -608 305 -436 141 -538
185 -635 276 -240 221 -34 533 395 598 98 15 260 5 386 -24 116 -26 314 -125
376 -187 19 -19 22 -18 50 14 44 50 46 59 16 79 -16 10 -30 20 -33 24 -3 3
-30 22 -60 41 -170 108 -361 165 -568 172 -56 1 -103 2 -104 1z"/>
<path d="M8888 8015 c-2 -2 -28 -5 -58 -9 -363 -40 -620 -264 -604 -525 15
-220 190 -365 609 -501 88 -29 201 -66 250 -82 259 -84 388 -146 479 -230 90
-82 120 -145 121 -253 0 -71 -4 -88 -32 -145 -101 -205 -383 -340 -708 -338
-266 2 -502 82 -697 239 l-62 49 -38 -37 -38 -37 28 -29 c40 -43 167 -130 247
-169 174 -86 381 -133 575 -130 80 1 201 11 211 18 4 2 24 6 45 10 87 13 251
83 339 144 102 70 191 184 225 287 27 83 22 219 -11 298 -52 126 -151 219
-324 304 -111 56 -124 61 -345 132 -437 142 -548 188 -652 273 -146 119 -152
293 -13 431 120 121 298 184 520 187 209 2 459 -78 605 -193 l54 -42 38 43 38
43 -72 53 c-115 84 -301 165 -428 188 -14 2 -41 7 -60 11 -33 6 -237 14 -242
10z"/>
<path d="M13168 8015 c-2 -2 -28 -5 -58 -8 -79 -8 -105 -14 -194 -43 -179 -59
-307 -159 -373 -291 -33 -66 -36 -82 -37 -156 0 -102 13 -149 64 -225 43 -64
109 -120 205 -174 103 -58 193 -93 520 -198 431 -138 570 -221 643 -379 36
-78 35 -181 -2 -265 -39 -87 -146 -189 -257 -244 -137 -68 -256 -94 -429 -96
-201 -1 -294 14 -445 74 -119 47 -247 125 -308 186 l-28 28 -41 -41 -41 -41
38 -34 c72 -62 138 -107 225 -152 87 -46 235 -100 300 -111 19 -3 42 -8 50
-10 61 -16 269 -22 366 -11 305 36 563 185 659 381 43 87 55 140 51 230 -6
121 -42 203 -130 291 -70 69 -116 101 -236 159 -113 56 -150 69 -460 170 -290
94 -392 135 -479 195 -109 73 -154 148 -155 255 -1 60 3 78 29 123 70 128 228
223 435 262 56 11 226 13 290 5 171 -23 350 -95 477 -192 l47 -36 33 38 c18
21 33 42 33 46 0 5 -11 16 -25 26 -14 10 -38 28 -53 41 -48 40 -273 148 -299
143 -2 0 -20 6 -42 14 -22 7 -55 16 -75 19 -20 3 -53 9 -73 12 -37 6 -220 13
-225 9z"/>
<path d="M11040 6917 l0 -1072 55 -1 55 0 0 1073 0 1073 -55 0 -55 0 0 -1073z"/>
<path d="M15208 7978 c-2 -7 -4 -33 -4 -58 l1 -45 385 -2 c212 0 390 -2 395
-2 7 -1 10 -346 10 -1013 l0 -1013 55 0 c37 0 55 4 56 13 1 6 2 463 3 1015 l1
1002 392 0 393 0 0 55 0 55 -841 3 c-668 2 -843 0 -846 -10z"/>
</g>
</svg>
