<?xml version="1.0" encoding="utf-8"?>
<!-- Generator: Adobe Illustrator 23.0.0, SVG Export Plug-In . SVG Version: 6.00 Build 0)  -->
<svg version="1.1" id="Layer_1" xmlns="http://www.w3.org/2000/svg" xmlns:xlink="http://www.w3.org/1999/xlink" x="0px" y="0px"
	 viewBox="0 0 1920 1080" style="enable-background:new 0 0 1920 1080;" xml:space="preserve">
<style type="text/css">
	.st0{fill:#EC592E;}
	.st1{fill:#898B87;}
	.st2{fill:#969595;}
	.st3{fill:#FFFFFF;}
</style>
<g id="Layer_5">
</g>
<path class="st0" d="M414.7,654.4c-59.4,0-114.5-23.3-155.1-65.5c-40-41.5-62-97.1-62-156.5s22-115.1,61.9-156.7
	c40.7-42.5,95.8-65.8,155.2-65.8c51.3,0,103.1,18.6,142.2,51.1l25.3,21l-54.9,64.4l-24.7-20.9c-22.9-19.4-55.8-31-87.9-31
	c-74.3,0-132.5,60.6-132.5,138c0,77.1,58.2,137.4,132.5,137.4c33,0,65.1-11.1,87.9-30.4l24.3-20.5l55.8,63.1l-25.8,21.4
	C517.8,635.8,466,654.4,414.7,654.4z"/>
<path class="st0" d="M1328.3,649.5h-35.8c-21.6,0-49.5-4.9-74.2-43.2l-0.1-0.1l-56.1-87.7c-14.7-22.9-24.2-24.8-70.6-24.8H1075
	v155.8h-84V214.7h161c102.8,0,156.7,70.3,156.7,139.8c0,42.1-19.2,81.2-52.8,107.3c-6,4.8-13.3,9-21.4,12.7l55.4,86.3
	c1.2,1.9,2.1,3.2,2.8,4.1h35.5v84.6L1328.3,649.5L1328.3,649.5z M1075,409.6h77c24.6,0,44.3-6.7,56.9-19.3
	c9.6-9.6,15.1-22.7,15.1-35.9c0-27.5-22.3-55.2-72.1-55.2h-77L1075,409.6L1075,409.6z"/>
<polygon class="st0" points="1663.2,649.5 1345.5,649.5 1345.5,214.7 1643.6,214.7 1643.6,299.3 1429.5,299.3 1429.5,390 
	1565.7,390 1565.7,474.7 1429.5,474.7 1429.5,564.9 1663.2,564.9 "/>
<g>
	<path class="st1" d="M253.2,917.5l-10.7-3.8L328,698.4h8.5l85.9,215.3l-10.7,3.8l-23.4-58.4H276.2L253.2,917.5z M383.9,848
		l-51.5-129.4L280.7,848H383.9z"/>
	<path class="st1" d="M687.3,859.1c0-61.6-146.5-43.3-146.5-109.9c0-30,35-50.8,73.2-50.8c39.2,0,64.1,18.3,73.2,26.5l-7.3,8.5
		c-7.6-7-30.3-23.7-66-23.7c-36.6,0-62.2,19.9-62.2,39.5c0,54.9,146.8,37.6,146.8,109.9c0,34.1-39.5,59.3-84.6,59.3
		c-45.5,0-73.9-21.8-84.6-32.8l7.9-7.9c9.2,9.2,35.4,29.4,76.7,29.4C656,907,687.3,884,687.3,859.1z"/>
	<path class="st1" d="M968.9,859.1c0-61.6-146.5-43.3-146.5-109.9c0-30,35-50.8,73.2-50.8c39.2,0,64.1,18.3,73.2,26.5l-7.3,8.5
		c-7.6-7-30.3-23.7-66-23.7c-36.6,0-62.2,19.9-62.2,39.5c0,54.9,146.8,37.6,146.8,109.9c0,34.1-39.5,59.3-84.6,59.3
		c-45.5,0-73.9-21.8-84.6-32.8l7.9-7.9c9.2,9.2,35.4,29.4,76.7,29.4C937.6,907,968.9,884,968.9,859.1z"/>
	<path class="st1" d="M1104,915.6V701.2h11.1v214.4H1104z"/>
	<path class="st1" d="M1396.7,859.1c0-61.6-146.5-43.3-146.5-109.9c0-30,35-50.8,73.2-50.8c39.2,0,64.1,18.3,73.2,26.5l-7.3,8.5
		c-7.6-7-30.3-23.7-66-23.7c-36.6,0-62.2,19.9-62.2,39.5c0,54.9,146.8,37.6,146.8,109.9c0,34.1-39.5,59.3-84.6,59.3
		c-45.5,0-73.9-21.8-84.6-32.8l7.9-7.9c9.2,9.2,35.4,29.4,76.7,29.4C1365.4,907,1396.7,884,1396.7,859.1z"/>
	<path class="st1" d="M1689.7,701.2v11.4h-78.9v203h-11.4v-203h-78.9v-11.4H1689.7z"/>
</g>
<g>
	<g>
		<path class="st2" d="M770.2,291.3c-2.7-0.2-5.4-0.3-8.1-0.3c-2.7,0-5.4,0.1-8.1,0.3c-4.7,1.4-9.2,4-12.9,7.9L629,416.6
			c-0.5,4.8-0.7,9.6-0.7,14.5c0,77.4,59.9,140.2,133.8,140.2s133.8-62.8,133.8-140.2c0-4.9-0.2-9.7-0.7-14.5L783,299.2
			C779.3,295.3,774.9,292.6,770.2,291.3z"/>
		<g id="Layer_3">
			<g>
				<path class="st3" d="M916.4,500.8L916.4,500.8l-0.1-0.4c0-0.1-0.1-0.2-0.1-0.3L900,451.9h-0.1c-0.2-1.1-1.1-1.9-2.2-1.9H867
					c-0.9,0-1.7,0.5-2,1.3l0,0v0.1v0.1L847.7,500c0,0.1-0.1,0.2-0.1,0.3l-0.2,0.4l0,0c-0.2,0.5-0.3,1.1-0.3,1.7
					c0,3.4,2.7,6.1,6.1,6.1c2.7,0,5-1.8,5.8-4.2l5.6-15.9v11.7v6.2v49H881v-46.8h2.5v46.8H900v-49v-3.1V490l4.8,14.4
					c0.8,2.5,3.1,4.2,5.8,4.2c3.4,0,6.1-2.7,6.1-6.1C916.7,501.9,916.6,501.3,916.4,500.8z"/>
				<path class="st2" d="M901.5,556.8h-38.4v-59.6l-2.7,7.6c-1,3.1-3.9,5.2-7.2,5.2c-4.3,0-7.6-3.3-7.6-7.6c0-0.8,0.1-1.6,0.4-2.3
					l0.2-0.4c0-0.1,0-0.1,0.1-0.2l17.3-48.4V451l0.1-0.3c0.5-1.4,1.9-2.3,3.4-2.3h30.7c1.4,0,2.6,0.8,3.2,1.9h0.1l16.6,49.3
					c0,0.1,0.1,0.3,0.1,0.4l0.1,0.2c0.2,0.6,0.4,1.4,0.4,2.2c0,4.3-3.3,7.6-7.6,7.6c-3.3,0-6.2-2.1-7.2-5.2l-1.9-5.6L901.5,556.8
					L901.5,556.8z M885,553.8h13.5v-73l7.7,23.2c0.6,1.9,2.4,3.2,4.4,3.2c2.6,0,4.6-2,4.6-4.6c0-0.4-0.1-0.8-0.2-1.1l-0.2-0.5
					c0-0.1-0.1-0.2-0.1-0.3l-15.8-47.1h-0.3l-0.2-1.2c-0.1-0.4-0.4-0.7-0.7-0.7H867c-0.2,0-0.4,0.1-0.5,0.2v0.1l-17.3,48.6
					c0,0.1,0,0.1-0.1,0.2v0.1l-0.3,0.7c-0.1,0.3-0.2,0.7-0.2,1.1c0,2.6,2,4.6,4.6,4.6c2,0,3.8-1.3,4.4-3.2l8.5-24.2v74.2h13.4V507
					h5.5L885,553.8L885,553.8z"/>
			</g>
			<circle class="st3" cx="881.1" cy="434.6" r="13.8"/>
			<g>
				<path class="st3" d="M680.2,500.8L680.2,500.8l-0.1-0.4c0-0.1-0.1-0.2-0.1-0.3l-16.2-48.2h-0.1c-0.2-1.1-1.1-1.9-2.2-1.9h-30.7
					c-0.9,0-1.7,0.5-2,1.3l0,0v0.1v0.1L611.5,500c0,0.1-0.1,0.2-0.1,0.3l-0.2,0.4l0,0c-0.2,0.5-0.3,1.1-0.3,1.7
					c0,3.4,2.7,6.1,6.1,6.1c2.7,0,5-1.8,5.8-4.2l5.6-15.9v11.7v6.2v49h16.4v-46.8h2.5v46.8h16.4v-49v-3.1V490l4.8,14.4
					c0.8,2.5,3.1,4.2,5.8,4.2c3.4,0,6.1-2.7,6.1-6.1C680.5,501.9,680.4,501.3,680.2,500.8z"/>
				<path class="st2" d="M665.2,556.8h-38.3v-59.6l-2.7,7.6c-1,3.1-3.9,5.2-7.2,5.2c-4.3,0-7.6-3.3-7.6-7.6c0-0.8,0.1-1.6,0.4-2.3
					l0.2-0.4c0-0.1,0-0.1,0.1-0.2l17.3-48.4V451l0.1-0.3c0.5-1.4,1.9-2.3,3.4-2.3h30.7c1.4,0,2.6,0.8,3.2,1.9l0,0l0.4,1l16.2,48.3
					c0,0.1,0.1,0.3,0.1,0.4l0.1,0.2c0.2,0.5,0.4,1.3,0.3,2.3c-0.1,4.2-3.4,7.5-7.6,7.5c-3.3,0-6.2-2.1-7.2-5.2l-1.9-5.6V556.8z
					 M648.8,553.8h13.4v-73l7.7,23.2c0.6,1.9,2.4,3.2,4.4,3.2c2.6,0,4.6-2,4.6-4.6v-0.2c0-0.3,0-0.6-0.1-0.9l-0.1-0.5
					c0-0.1-0.1-0.2-0.1-0.3l-15.8-47.1h-0.2l-0.3-1.2c-0.1-0.4-0.4-0.7-0.7-0.7h-30.7c-0.2,0-0.4,0.1-0.5,0.2v0.1L613,500.4
					c0,0.1,0,0.1-0.1,0.2v0.1l-0.3,0.7c-0.1,0.3-0.2,0.7-0.2,1.1c0,2.6,2,4.6,4.6,4.6c2,0,3.8-1.3,4.4-3.2l8.5-24.2v74.2h13.4V507
					h5.5L648.8,553.8L648.8,553.8z"/>
			</g>
			<circle class="st3" cx="644.9" cy="434.6" r="13.8"/>
			<g>
				<path class="st3" d="M874.7,506L874.7,506l-0.2-0.6c0-0.1-0.1-0.3-0.1-0.4l-22.6-67.1h-0.1c-0.3-1.5-1.5-2.7-3.1-2.7h-42.8
					c-1.3,0-2.3,0.7-2.8,1.8l0,0v0.1c0,0.1,0,0.1-0.1,0.2L779,505c0,0.1-0.1,0.3-0.1,0.4l-0.2,0.6l0,0c-0.2,0.8-0.4,1.6-0.4,2.4
					c0,4.7,3.8,8.5,8.5,8.5c3.8,0,7-2.5,8.1-5.9l7.8-22.1v16.3v8.6V582h22.8v-65.1h3.5V582h22.8v-68.3v-4.3V491l6.7,20
					c1.1,3.4,4.3,5.9,8.1,5.9c4.7,0,8.5-3.8,8.5-8.5C875.1,507.6,875,506.8,874.7,506z"/>
				<path class="st2" d="M853.3,583.5h-25.8v-65.1H827v65.1h-25.8v-85.8l-4.9,13.8c-1.3,4.1-5.2,6.9-9.5,6.9c-5.5,0-10-4.5-10-10
					c0-1,0.2-1.9,0.4-2.8l0.2-0.6c0-0.1,0-0.2,0.1-0.2v-0.1l0.1-0.2l23.9-67.7v-0.1l0.1-0.3c0.8-1.7,2.3-2.7,4.2-2.7h42.8
					c1.8,0,3.4,1.1,4.2,2.7l0,0l0.4,1l22.7,67.3v0.1c0,0.1,0,0.1,0.1,0.2l0.2,0.5c0.3,0.9,0.5,1.8,0.5,2.9c0,5.5-4.5,10-10,10
					c-4.4,0-8.2-2.8-9.5-6.9l-3.8-11.3v83.3H853.3z M830.5,580.5h19.8v-98.7l9.6,28.7c0.9,2.9,3.6,4.9,6.7,4.9c3.9,0,7-3.1,7-7
					c0-0.7-0.1-1.3-0.3-1.9l-0.3-0.9c0-0.1,0-0.1-0.1-0.2l-22.2-66h-0.2l-0.3-1.2c-0.1-0.7-0.7-1.5-1.6-1.5h-42.8
					c-0.7,0-1.1,0.4-1.3,0.7c0,0.3-0.1,0.5-0.2,0.6l-23.8,67.3c0,0.1,0,0.2-0.1,0.2v0.1l-0.3,0.8c-0.2,0.7-0.3,1.4-0.3,2
					c0,3.9,3.1,7,7,7c3.1,0,5.7-2,6.7-4.9l10.7-30.4v100.4H824v-65.1h6.5V580.5z"/>
			</g>
			<g>
				<path class="st3" d="M745.3,504.6L745.3,504.6l-0.2-0.6c0-0.1-0.1-0.3-0.1-0.4l-22.6-67.1h-0.1c-0.3-1.5-1.5-2.7-3.1-2.7h-42.8
					c-1.3,0-2.3,0.7-2.8,1.8l0,0v0.1c0,0.1,0,0.1-0.1,0.2l-23.9,67.7c0,0.1-0.1,0.3-0.1,0.4l-0.2,0.6l0,0c-0.2,0.8-0.4,1.6-0.4,2.4
					c0,4.7,3.8,8.5,8.5,8.5c3.8,0,7-2.5,8.1-5.9l7.8-22.1v16.3v8.6v68.3H696v-65.1h3.5v65.1h22.8v-68.3V508v-18.4l6.7,20
					c1.1,3.4,4.3,5.9,8.1,5.9c4.7,0,8.5-3.8,8.5-8.5C745.7,506.2,745.5,505.4,745.3,504.6z"/>
				<path class="st2" d="M724.3,582.7h-53v-83.5l-3.9,11.1c-1.4,4.3-5.4,7.2-10,7.2c-5.8,0-10.5-4.7-10.5-10.5c0-1,0.2-2,0.5-2.9
					l0.2-0.6c0-0.1,0-0.1,0-0.2v-0.1l24.2-68.5c0.8-1.9,2.6-3,4.6-3h42.8c1.9,0,3.6,1.1,4.5,2.7h0.2l23.2,68.8c0,0.1,0,0.1,0,0.2
					l0.2,0.6c0.2,0.9,0.5,1.9,0.4,3c-0.1,5.7-4.7,10.4-10.5,10.4c-4.6,0-8.6-2.9-10-7.3l-2.8-8.4v81H724.3z M701.5,578.7h18.8V477.3
					l10.6,31.6c0.9,2.7,3.4,4.5,6.2,4.5c3.6,0,6.5-2.9,6.5-6.5v-0.2c0.1-0.4-0.1-1-0.2-1.6l-0.3-0.9c0-0.1,0-0.1,0-0.2L721,438.5
					h-0.3l-0.3-1.6c-0.1-0.5-0.5-1.1-1.1-1.1h-42.8c-0.4,0-0.7,0.1-0.9,0.4c-0.1,0.3-0.2,0.5-0.3,0.7l-23.7,67.3c0,0.1,0,0.1,0,0.2
					v0.1l-0.3,0.8c-0.2,0.7-0.3,1.3-0.3,1.8c0,3.6,2.9,6.5,6.5,6.5c2.8,0,5.3-1.8,6.2-4.5l11.7-33.2v102.9H694v-65.1h7.5V578.7z"/>
			</g>
			<circle class="st3" cx="696" cy="412.5" r="19.3"/>
			<g>
				<path class="st3" d="M823.9,498.4L823.9,498.4l-0.2-0.8c-0.1-0.2-0.1-0.3-0.2-0.5l-28.8-85.5h-0.1c-0.3-1.9-1.9-3.4-3.9-3.4
					h-54.5c-1.6,0-2.9,0.9-3.6,2.3l0,0v0.1c0,0.1-0.1,0.2-0.1,0.3l-30.4,86.2c-0.1,0.2-0.1,0.3-0.2,0.5l-0.3,0.8l0,0
					c-0.3,1-0.5,2-0.5,3c0,6,4.8,10.8,10.8,10.8c4.8,0,8.8-3.2,10.3-7.5l9.9-28.2v20.7v10.9v87h29.1v-82.9h4.4v82.9h29.1v-87v-5.5
					v-23.5l8.6,25.5c1.4,4.3,5.5,7.5,10.3,7.5c6,0,10.8-4.9,10.8-10.8C824.4,500.4,824.2,499.4,823.9,498.4z"/>
				<path class="st2" d="M796.2,596.6h-32.1v-82.9h-1.4v82.9h-32.1V485.3l-7,19.9c-1.8,5.1-6.5,8.5-11.7,8.5
					c-6.8,0-12.3-5.5-12.3-12.3c0-1,0.2-2.2,0.6-3.4v-0.1l0.4-0.9c0.1-0.2,0.1-0.3,0.2-0.4l30.3-86c0-0.1,0-0.1,0.1-0.2v-0.2
					l0.2-0.3c1-2,2.8-3.1,4.9-3.1h54.5c2.2,0,4.2,1.4,5,3.4l0,0l29.1,86.4c0.1,0.1,0.1,0.2,0.1,0.3l0.1,0.4l0.2,0.8
					c0.4,1.2,0.6,2.3,0.6,3.3c0,6.8-5.5,12.3-12.3,12.3c-5.3,0-10.1-3.5-11.7-8.5l-5.7-16.8L796.2,596.6L796.2,596.6z M767.1,593.6
					h26.1V470l11.5,34.2c1.2,3.8,4.9,6.5,8.9,6.5c5.1,0,9.3-4.2,9.3-9.3c0-0.7-0.1-1.5-0.4-2.5l-0.2-0.7c0-0.1-0.1-0.2-0.1-0.3
					l-0.1-0.2l-28.5-84.5h-0.3l-0.2-1.3c-0.2-1.2-1.2-2.1-2.4-2.1h-54.5c-1.2,0-1.8,0.7-2.1,1.3c0,0.1-0.1,0.3-0.1,0.3v0.1
					l-30.4,86.3v0.1c-0.1,0.2-0.1,0.3-0.2,0.4l-0.3,0.7c-0.3,1-0.4,1.8-0.4,2.5c0,5.2,4.1,9.3,9.3,9.3c4,0,7.5-2.6,8.9-6.5
					l12.8-36.5v125.9h26.1v-82.9h7.4L767.1,593.6L767.1,593.6z"/>
			</g>
			<circle class="st3" cx="761.2" cy="381.1" r="24.5"/>
			<circle class="st3" cx="825.5" cy="413.9" r="19.3"/>
			<polygon class="st2" points="854.9,513.2 851.4,505.4 853.1,498.6 856.3,500.9 855.2,510.1 			"/>
		</g>
		<g id="Layer_7">
			<polygon class="st2" points="799.4,514.9 796.5,508.6 795.5,498.4 795.5,487.1 798.1,487.1 798.6,497.8 799.4,510.1 			"/>
		</g>
		<polyline class="st2" points="729,511.9 724.8,498.4 729,485.5 732.7,484.3 732.7,502.9 729.4,513 		"/>
	</g>
	<polygon class="st2" points="673.2,505.7 673.2,497.3 669,497.3 667.1,504.8 670.2,507.2 	"/>
	<path class="st0" d="M915.6,275.6c-41-42.4-95.7-65.7-154-65.7s-113,23.3-154,65.7c-40.7,42-63.1,97.7-63.1,156.8
		c0,59.1,22.4,114.7,63.1,156.6c41,42.2,95.7,65.4,154,65.4c58.3,0,113-23.3,154-65.4c40.7-41.8,63.1-97.5,63.1-156.6
		S956.3,317.6,915.6,275.6z M682,322.2l55-55c13.6-13.6,35.7-13.6,49.3,0l54.1,54.1c32.8,25.2,54.2,65.6,54.2,111.1
		c0,75.8-59.6,137.4-133,137.4c-73.1,0-132.5-61.6-132.5-137.4C629.1,387.4,649.9,347.4,682,322.2z"/>
</g>
</svg>
